<svg width="12" height="12" viewBox="0 0 12 12" fill="none" xmlns="http://www.w3.org/2000/svg">
<g id="clarity:note-edit-solid" clip-path="url(#clip0_2292_2740)">
<path id="Vector" d="M11.0002 2.13323L9.76683 0.899892C9.66082 0.798818 9.51997 0.742432 9.3735 0.742432C9.22702 0.742432 9.08617 0.798818 8.98016 0.899892L7.8835 1.99989H2.00016C1.82335 1.99989 1.65378 2.07013 1.52876 2.19515C1.40373 2.32018 1.3335 2.48975 1.3335 2.66656V9.99989C1.3335 10.1767 1.40373 10.3463 1.52876 10.4713C1.65378 10.5963 1.82335 10.6666 2.00016 10.6666H9.3335C9.51031 10.6666 9.67988 10.5963 9.8049 10.4713C9.92992 10.3463 10.0002 10.1767 10.0002 9.99989V3.91989L11.0002 2.91989C11.1044 2.81552 11.1629 2.67405 11.1629 2.52656C11.1629 2.37906 11.1044 2.2376 11.0002 2.13323ZM6.27683 6.70989L4.88016 7.01989L5.2135 5.63656L8.39683 2.44656L9.4735 3.52323L6.27683 6.70989ZM9.8335 3.14323L8.75683 2.06656L9.3735 1.44989L10.4502 2.52656L9.8335 3.14323Z" fill="white"/>
</g>
<defs>
<clipPath id="clip0_2292_2740">
<rect width="12" height="12" fill="white"/>
</clipPath>
</defs>
</svg>
