<svg width="21" height="22" viewBox="0 0 21 22" fill="none" xmlns="http://www.w3.org/2000/svg">
<g id="Group">
<path id="Vector" d="M4.5 5C4.5 4.73478 4.60536 4.48043 4.79289 4.29289C4.98043 4.10536 5.23478 4 5.5 4H15.5C15.7652 4 16.0196 4.10536 16.2071 4.29289C16.3946 4.48043 16.5 4.73478 16.5 5C16.5 5.26522 16.3946 5.51957 16.2071 5.70711C16.0196 5.89464 15.7652 6 15.5 6H5.5C5.23478 6 4.98043 5.89464 4.79289 5.70711C4.60536 5.51957 4.5 5.26522 4.5 5ZM4.5 9C4.5 8.73478 4.60536 8.48043 4.79289 8.29289C4.98043 8.10536 5.23478 8 5.5 8H15.5C15.7652 8 16.0196 8.10536 16.2071 8.29289C16.3946 8.48043 16.5 8.73478 16.5 9C16.5 9.26522 16.3946 9.51957 16.2071 9.70711C16.0196 9.89464 15.7652 10 15.5 10H5.5C5.23478 10 4.98043 9.89464 4.79289 9.70711C4.60536 9.51957 4.5 9.26522 4.5 9ZM5.5 12C5.23478 12 4.98043 12.1054 4.79289 12.2929C4.60536 12.4804 4.5 12.7348 4.5 13C4.5 13.2652 4.60536 13.5196 4.79289 13.7071C4.98043 13.8946 5.23478 14 5.5 14H15.5C15.7652 14 16.0196 13.8946 16.2071 13.7071C16.3946 13.5196 16.5 13.2652 16.5 13C16.5 12.7348 16.3946 12.4804 16.2071 12.2929C16.0196 12.1054 15.7652 12 15.5 12H5.5ZM4.5 17C4.5 16.7348 4.60536 16.4804 4.79289 16.2929C4.98043 16.1054 5.23478 16 5.5 16H9.5C9.76522 16 10.0196 16.1054 10.2071 16.2929C10.3946 16.4804 10.5 16.7348 10.5 17C10.5 17.2652 10.3946 17.5196 10.2071 17.7071C10.0196 17.8946 9.76522 18 9.5 18H5.5C5.23478 18 4.98043 17.8946 4.79289 17.7071C4.60536 17.5196 4.5 17.2652 4.5 17Z" fill="#3A3A3A"/>
<path id="Vector_2" fill-rule="evenodd" clip-rule="evenodd" d="M0.5 3C0.5 2.20435 0.816071 1.44129 1.37868 0.87868C1.94129 0.31607 2.70435 0 3.5 0H17.5C18.2956 0 19.0587 0.31607 19.6213 0.87868C20.1839 1.44129 20.5 2.20435 20.5 3V19C20.5 19.7956 20.1839 20.5587 19.6213 21.1213C19.0587 21.6839 18.2956 22 17.5 22H3.5C2.70435 22 1.94129 21.6839 1.37868 21.1213C0.816071 20.5587 0.5 19.7956 0.5 19V3ZM3.5 2H17.5C17.7652 2 18.0196 2.10536 18.2071 2.29289C18.3946 2.48043 18.5 2.73478 18.5 3V19C18.5 19.2652 18.3946 19.5196 18.2071 19.7071C18.0196 19.8946 17.7652 20 17.5 20H3.5C3.23478 20 2.98043 19.8946 2.79289 19.7071C2.60536 19.5196 2.5 19.2652 2.5 19V3C2.5 2.73478 2.60536 2.48043 2.79289 2.29289C2.98043 2.10536 3.23478 2 3.5 2Z" fill="#3A3A3A"/>
</g>
</svg>
